<mxfile host="app.diagrams.net" modified="2023-05-22T15:15:59.595Z" agent="Mozilla/5.0 (X11; Linux x86_64) AppleWebKit/537.36 (KHTML, like Gecko) Chrome/105.0.0.0 Safari/537.36" version="21.3.2" etag="HR0FzX0kaUKxAPtkoQwi" type="github">
  <diagram name="第 1 页" id="D-ba1vH4_tnDnjlppOdY">
    <mxGraphModel>
      <root>
        <mxCell id="0" />
        <mxCell id="1" parent="0" />
      </root>
    </mxGraphModel>
  </diagram>
</mxfile>
